<?xml version="1.0" encoding="UTF-8"?>
<svg width="21px" height="20px" viewBox="0 0 21 20" version="1.1" xmlns="http://www.w3.org/2000/svg" xmlns:xlink="http://www.w3.org/1999/xlink">
    <!-- Generator: Sketch 60.1 (88133) - https://sketch.com -->
    
    <desc>Created with Sketch.</desc>
    <g id="页面-1" stroke-width="1" fill-rule="evenodd">
        <g id="告警处置-预处理规则-编辑/创建" transform="translate(-1096.000000, -578.000000)">
            <g id="编组-26" transform="translate(300.000000, 36.000000)">
                <g id="编组-16备份-2" transform="translate(24.000000, 264.000000)">
                    <g id="编组-18备份-7" transform="translate(18.000000, 240.000000)">
                        <g id="编组-3" transform="translate(0.000000, 32.000000)">
                            <g id="删除" transform="translate(754.500000, 6.000000)">
                                <path d="M5.65734265,6.79841896 L5.65734265,17.0434783 L14.3426574,17.0434783 L14.3426574,6.79841896 L15.6643357,6.79841896 L15.6643357,18.1818182 L4.33566434,18.1818182 L4.33566434,6.79841896 L5.65734265,6.79841896 Z M8.89860139,8.11188811 L8.89860139,15.034965 L7.48251748,15.034965 L7.48251748,8.11188811 L8.89860139,8.11188811 Z M12.5174825,8.11188811 L12.5174825,15.034965 L11.1013986,15.034965 L11.1013986,8.11188811 L12.5174825,8.11188811 Z M12.1965035,1.81818182 L12.8479231,4.33518182 L16.9230769,4.33566434 L16.9230769,5.59440559 L3.07692308,5.59440559 L3.07692308,4.33566434 L7.15092308,4.33518182 L7.80349649,1.81818182 L12.1965035,1.81818182 Z M11.1391608,2.95652173 L8.86083917,2.95652173 L8.50792308,4.33518182 L11.4909231,4.33518182 L11.1391608,2.95652173 Z" id="形状结合"></path>
                            </g>
                        </g>
                    </g>
                </g>
            </g>
        </g>
    </g>
</svg>