<?xml version="1.0" encoding="UTF-8"?>
<svg width="20px" height="20px" viewBox="0 0 20 20" version="1.1" xmlns="http://www.w3.org/2000/svg" xmlns:xlink="http://www.w3.org/1999/xlink">
    <!-- Generator: Sketch 60.1 (88133) - https://sketch.com -->

    <desc>Created with Sketch.</desc>
    <g id="页面-1" stroke-width="1" fill-rule="evenodd">
        <g id="剧本图书馆-团队空间-编辑-操作" transform="translate(-1336.000000, -546.000000)" fill-rule="nonzero" stroke-width="0.3">
            <g id="编组-8备份-3" transform="translate(354.000000, 136.000000)">
                <g id="编组-18备份-4" transform="translate(24.000000, 404.000000)">
                    <g id="储存" transform="translate(958.000000, 6.000000)">
                        <path d="M16.7505519,7.48376623 L12.5162338,3.24944805 C12.3275235,3.06068082 12.0715597,2.95454545 11.8046429,2.95454545 L3.96103896,2.95454545 C3.40516795,2.95454545 2.95454545,3.40516795 2.95454545,3.96103896 L2.95454545,16.038961 C2.95454545,16.5948321 3.40516795,17.0454545 3.96103896,17.0454545 L16.038961,17.0454545 C16.5948321,17.0454545 17.0454545,16.5948321 17.0454545,16.038961 L17.0454545,8.19535714 C17.0454545,7.92844029 16.9393192,7.67247645 16.7505519,7.48376623 Z M5.97402597,3.96103896 L6.7288961,3.96103896 L6.7288961,6.47727273 L5.97402597,6.47727273 L5.97402597,3.96103896 Z M7.73538961,3.96103896 L10,3.96103896 L10,6.47727273 L7.73538961,6.47727273 L7.73538961,3.96103896 Z M5.97402597,16.038961 L5.97402597,13.0194805 L14.025974,13.0194805 L14.025974,16.038961 L5.97402597,16.038961 Z M16.038961,16.038961 L15.0324675,16.038961 L15.0324675,12.5162338 C15.0324675,12.2382983 14.8071563,12.012987 14.5292208,12.012987 L5.47077922,12.012987 C5.19284371,12.012987 4.96753247,12.2382983 4.96753247,12.5162338 L4.96753247,16.038961 L3.96103896,16.038961 L3.96103896,3.96103896 L4.96753247,3.96103896 L4.96753247,6.98051948 C4.96753247,7.25845499 5.19284371,7.48376623 5.47077922,7.48376623 L10.5032468,7.48376623 C10.7811823,7.48376623 11.0064935,7.25845499 11.0064935,6.98051948 L11.0064935,3.96103896 L11.8046429,3.96103896 L16.038961,8.19535714 L16.038961,16.038961 Z" id="形状"></path>
                    </g>
                </g>
            </g>
        </g>
    </g>
</svg>