<?xml version="1.0" standalone="no"?><!DOCTYPE svg PUBLIC "-//W3C//DTD SVG 1.1//EN" "http://www.w3.org/Graphics/SVG/1.1/DTD/svg11.dtd"><svg t="1625645857125" class="icon" viewBox="0 0 1024 1024" version="1.1" xmlns="http://www.w3.org/2000/svg" p-id="13812" xmlns:xlink="http://www.w3.org/1999/xlink" width="16" height="16"><defs><style type="text/css"></style></defs><path d="M942.208 486.208c-94.784-199.68-238.08-300.16-430.208-300.16-192.192 0-335.36 100.48-430.208 300.224a60.288 60.288 0 0 0 0 51.52c94.784 199.68 238.08 300.16 430.208 300.16 192.192 0 335.36-100.48 430.208-300.224a60.288 60.288 0 0 0 0-51.52zM512 766.016c-161.28 0-279.424-81.792-362.688-254.016C232.576 339.84 350.72 257.984 512 257.984S791.424 339.84 874.688 512c-83.2 172.16-201.28 254.016-362.688 254.016zM507.968 336a176 176 0 1 0 0 352 176 176 0 0 0 0-352z m0 288a112 112 0 1 1 0-224 112 112 0 1 1 0 224z" p-id="13813"></path></svg>